<?xml version="1.0" encoding="utf-8"?>
<!-- Generator: Adobe Illustrator 23.0.1, SVG Export Plug-In . SVG Version: 6.00 Build 0)  -->
<svg version="1.1" id="Layer_1" xmlns="http://www.w3.org/2000/svg" xmlns:xlink="http://www.w3.org/1999/xlink" x="0px" y="0px"
	 viewBox="0 0 1000 1000" style="enable-background:new 0 0 1000 1000;" xml:space="preserve">
<style type="text/css">
	.st0{fill:#2D1660;}
	.st1{fill:#FFFFFF;stroke:#000000;stroke-miterlimit:10;}
	.st2{fill:#FFFFFF;}
	.st3{fill:#958AB1;}
	.st4{fill:#E82CAD;}
	.st5{fill:#F3C13E;}
	.st6{fill:#4CD0D4;}
	.st7{clip-path:url(#SVGID_2_);}
	.st8{clip-path:url(#SVGID_4_);}
	.st9{opacity:0.2;}
	.st10{opacity:0.65;}
	.st11{fill:none;stroke:#FFFFFF;stroke-width:7.1005;stroke-linecap:round;stroke-linejoin:round;stroke-miterlimit:10;}
	.st12{fill:none;stroke:#FFFFFF;stroke-width:6.1196;stroke-miterlimit:10;}
	.st13{fill:none;stroke:#FFFFFF;stroke-width:6.12;stroke-linecap:round;stroke-linejoin:round;stroke-miterlimit:10;}
</style>
<path class="st0" d="M500,1000L500,1000C223.9,1000,0,776.1,0,500v0C0,223.9,223.9,0,500,0h0c276.1,0,500,223.9,500,500v0
	C1000,776.1,776.1,1000,500,1000z"/>
<g>
	<path class="st2" d="M726.7,787.2H273.3l119.9-519.1c8.4-37.1,48.4-75.7,106.8-75.7c58.3,0,98.4,38.6,106.6,75.7v1.5L726.7,787.2z"
		/>
	<g>
		<g>
			<path class="st0" d="M600.5,694.6L600.5,694.6l-86.9,113.1L465,687l0,0c-7-15.3-9.6-33.7-6.4-53.1c8.2-50.3,51.9-89.1,97.6-86.5
				c45.7,2.6,76,45.5,67.8,95.8C620.8,662.6,612.3,680.3,600.5,694.6z"/>
		</g>
		<circle class="st0" cx="552" cy="473.6" r="45.9"/>
	</g>
</g>
</svg>
