<?xml version="1.0" encoding="utf-8"?>
<!-- Generator: Adobe Illustrator 23.0.1, SVG Export Plug-In . SVG Version: 6.00 Build 0)  -->
<svg version="1.1" id="Layer_1" xmlns="http://www.w3.org/2000/svg" xmlns:xlink="http://www.w3.org/1999/xlink" x="0px" y="0px"
	 viewBox="0 0 2248 594.8" style="enable-background:new 0 0 2248 594.8;" xml:space="preserve">
<style type="text/css">
	.st0{fill:#2D1660;}
	.st1{fill:#FFFFFF;stroke:#000000;stroke-miterlimit:10;}
	.st2{fill:#FFFFFF;}
	.st3{fill:#958AB1;}
	.st4{fill:#E82CAD;}
	.st5{fill:#F3C13E;}
	.st6{fill:#4CD0D4;}
	.st7{clip-path:url(#SVGID_2_);}
	.st8{clip-path:url(#SVGID_4_);}
	.st9{opacity:0.2;}
	.st10{opacity:0.65;}
	.st11{fill:none;stroke:#FFFFFF;stroke-width:7.1005;stroke-linecap:round;stroke-linejoin:round;stroke-miterlimit:10;}
	.st12{fill:none;stroke:#FFFFFF;stroke-width:6.1196;stroke-miterlimit:10;}
	.st13{fill:none;stroke:#FFFFFF;stroke-width:6.12;stroke-linecap:round;stroke-linejoin:round;stroke-miterlimit:10;}
</style>
<path class="st2" d="M453.4,594.8L333.3,77.2v-1.5C325.1,38.6,285,0,226.7,0c-58.3,0-98.4,38.6-106.8,75.7L0,594.8h232.1
	l-40.4-100.2c-5-11-7.8-23.4-7.8-36.8c0-5.3,0.4-10.8,1.3-16.3c8.2-50.3,51.9-89.1,97.6-86.5c45.7,2.6,76,45.5,67.8,95.8
	c-3.2,19.4-11.6,37.2-23.5,51.4h0l-71.1,92.5H453.4z M278.7,327.1c-25.3,0-45.9-20.5-45.9-45.9c0-25.3,20.5-45.9,45.9-45.9
	c25.3,0,45.9,20.5,45.9,45.9C324.6,306.6,304,327.1,278.7,327.1z"/>
<g>
	<path class="st2" d="M523.6,591.8V68.6h48.8v268.7c2.7-3.6,5.6-7.1,8.7-10.6c29-32.6,64.7-48.8,107.1-48.8
		c42.4,0,78.1,16.3,107.1,48.8c28.1,31.6,42.2,68.8,42.2,111.6c0,42.8-14.1,80-42.2,111.6c-29,32.6-64.7,48.8-107.1,48.8
		c-42.4,0-78.1-16.3-107.1-48.8c-3.1-3.4-6-7-8.7-10.6v52.4H523.6z M757.6,360.2c-20.8-22.3-46.5-33.5-77.1-33.5
		c-30.6,0-56.3,11.2-77.1,33.5c-20.7,22.2-31,48.3-31,78.1c0,29.9,10.3,55.9,31,78.1c20.8,22.3,46.5,33.5,77.1,33.5
		c30.6,0,56.3-11.2,77.1-33.5c20.7-22.2,31-48.2,31-78.1C788.7,408.5,778.3,382.4,757.6,360.2z"/>
	<path class="st2" d="M1013.1,560.4c44.7,0,67-16.7,67-50.1c0-19.5-16-34.4-48-44.8c-13.5-4.4-28-8.5-43.6-12.3
		c-15.6-3.7-30.2-8.7-43.9-15c-15.8-7.3-27.7-16.5-35.6-27.8c-7.9-11.2-11.8-24.4-11.8-39.7c0-30.5,10.7-53.6,32.1-69.2
		c21.5-15.7,47.1-23.6,76.7-23.6c29.6,0,54.3,6.1,74.2,18.4c19.6,12.1,32.7,33.6,39.3,64.6h-52.3c-5.2-17.1-13.1-28.5-23.8-34.1
		c-10.6-5.6-23.5-8.4-38.7-8.4c-15.2,0-28.3,3.3-39.2,9.9c-11.2,6.7-16.7,16.9-16.7,30.7c0,13.8,4.6,23.9,13.9,30.4
		c9.1,6.4,20.4,11.6,33.9,15.9c13.5,4.2,28,8.1,43.6,11.6c15.7,3.5,30.3,8.5,44,15c31.6,15.1,47.4,39.1,47.4,72.2
		c0,33.1-11.8,57.5-35.5,73.2c-11.9,7.9-25,13.8-39.5,17.7c-14.3,3.9-29.7,5.9-46.4,5.9c-71.2,0-112-31.6-122.6-94.9h51.7
		c5.2,19.9,13.9,33.9,26.3,42.1C978,556.3,993.8,560.4,1013.1,560.4z"/>
	<path class="st2" d="M1501.6,457.2h-270c4.7,26.3,17.5,48,38.4,64.9c21.3,17.2,45,25.8,71.1,25.8c17.7,0,34.5-4.1,50.6-12.2
		c16-8.1,29.4-19.4,40.1-33.8h55.8c-13,29.3-32.7,52.4-58.9,69.4c-26.3,17-53,25.5-80.2,25.5c-27.2,0-50.5-4.2-69.8-12.6
		c-19.3-8.4-36.3-19.8-50.9-34.2c-31.4-30.9-47.1-68.6-47.1-113c0-44.2,15.7-82,47.1-113.4c31.4-31.4,69.2-47.1,113.4-47.1
		c42.9,0,80.2,15.1,112,45.3c32.3,30.8,48.5,67.3,48.5,109.5V457.2z M1410.5,350.4c-20.2-16.7-43.3-25.1-69.4-25.1
		c-39.8,0-71.2,18-94.2,54.1c-7,10.9-11.9,22.9-14.6,35.9H1450C1444.4,389.2,1431.2,367.6,1410.5,350.4z"/>
	<path class="st2" d="M1793.9,400c0-20-4.5-37.1-13.6-51.3c-9.1-14.2-24.1-21.3-45-21.3c-20.9,0-37.9,4-50.9,11.9
		s-23.6,18.3-31.7,31c-14.6,23-22,54.1-22,93.1v128.4h-48.8V284.9h48.8v52.8c10.2-17.2,23.2-31.2,39.1-41.9
		c16.7-11.4,36-17.1,57.9-17.1c21.9,0,39.5,3.1,53,9.4c13.5,6.3,24.9,14.9,34.2,25.8c18.6,21.9,27.9,50.6,27.9,86.1v191.8h-48.8V400
		z"/>
	<path class="st2" d="M1898.5,284.9h76.7V165.6h48.8v119.3h76v45.3h-76v261.6h-48.8V330.2h-76.7V284.9z"/>
	<path class="st2" d="M2178.6,587.3c-8.1-7.7-12.2-16.9-12.2-27.6c0-10.7,4-20,11.9-27.9c7.9-7.9,17.4-11.9,28.6-11.9
		c11.2,0,20.8,3.8,29,11.5c8.1,7.7,12.2,17,12.2,27.9s-4.2,20.2-12.6,27.9c-8.4,7.7-17.9,11.5-28.6,11.5
		C2196.1,598.8,2186.7,594.9,2178.6,587.3z"/>
</g>
</svg>
